<?xml version="1.0" ?><!DOCTYPE svg  PUBLIC '-//W3C//DTD SVG 1.1//EN'  'http://www.w3.org/Graphics/SVG/1.1/DTD/svg11.dtd'><svg height="100%" style="fill-rule:evenodd;clip-rule:evenodd;stroke-linejoin:round;stroke-miterlimit:2;" version="1.1" viewBox="0 0 32 32" width="100%" xml:space="preserve" xmlns="http://www.w3.org/2000/svg" xmlns:serif="http://www.serif.com/" xmlns:xlink="http://www.w3.org/1999/xlink"><path d="M28.535,3.464c0,0 0,0 0,0c-0.938,-0.937 -2.209,-1.464 -3.535,-1.464c-1.327,0 -2.598,0.527 -3.536,1.464c-4.524,4.525 -12.886,12.886 -12.886,12.886c-0.137,0.138 -0.232,0.312 -0.271,0.502l-1.487,7.085c-0.069,0.329 0.032,0.671 0.269,0.909c0.236,0.239 0.577,0.343 0.906,0.277l7.143,-1.428c0.194,-0.039 0.372,-0.134 0.511,-0.274c0,0 8.362,-8.361 12.886,-12.885c1.953,-1.953 1.953,-5.119 0,-7.072Zm-8.864,4.622l4.243,4.242l-9.465,9.465c0,0 -5.36,1.072 -5.36,1.072c-0,-0 1.114,-5.311 1.114,-5.311l9.468,-9.468Zm5.657,2.828l-4.242,-4.243l1.792,-1.792c0.563,-0.563 1.326,-0.879 2.122,-0.879c0.795,-0 1.558,0.316 2.121,0.879c1.171,1.171 1.171,3.071 -0,4.242l-1.793,1.793Z"/><path d="M4,29l24,0c0.552,0 1,-0.448 1,-1c0,-0.552 -0.448,-1 -1,-1l-24,0c-0.552,0 -1,0.448 -1,1c0,0.552 0.448,1 1,1Z"/></svg>